# xmcd CD database file
#
# Track frame offsets:
#	150
#	15425
#	32673
#	46122
#	67263
#	80797
#	91041
#	109588
#	125806
#	145119
#	159869
#	170832
#
# Disc length: 2457 seconds
#
# Revision: 0
# Processed by: cddbd v1.5.1PL0 Copyright (c) Steve Scherf et al.
# Submitted via: CDex 1.51
#
DISCID=9809970c
DTITLE=Sonny Landreth - Blues Attack
DYEAR=1900
DGENRE=Blues
TTITLE0=Frisco Bay
TTITLE1=The Center
TTITLE2=One Life
TTITLE3=Black White and Blue
TTITLE4=Names
TTITLE5=Blues Attack
TTITLE6=Z
TTITLE7=Key to the Highway
TTITLE8=At Some Time
TTITLE9=Baby Please Don't Go
TTITLE10=Pine Groove Blues
TTITLE11=I'm Ready
EXTD=
EXTT0=
EXTT1=
EXTT2=
EXTT3=
EXTT4=
EXTT5=
EXTT6=
EXTT7=
EXTT8=
EXTT9=
EXTT10=
EXTT11=
PLAYORDER=
